<svg width="25" height="25" viewBox="0 0 25 25" fill="none" xmlns="http://www.w3.org/2000/svg">
<g clip-path="url(#clip0_108_5176)">
<g clip-path="url(#clip1_108_5176)">
<g clip-path="url(#clip2_108_5176)">
<path d="M22.0548 2.69761H20.8296V1.47234C20.8296 0.73718 20.3395 0.24707 19.6043 0.24707C18.8691 0.24707 18.379 0.73718 18.379 1.47234V2.69761H6.12635V1.47234C6.12635 0.73718 5.63624 0.24707 4.90108 0.24707C4.16592 0.24707 3.67581 0.73718 3.67581 1.47234V2.69761H1.22527C0.61264 2.69761 0 3.18772 0 3.92288V21.0766C0 21.8118 0.61263 22.3019 1.22527 22.3019H8.69941C7.84172 20.8316 7.35161 19.1162 7.35161 17.4008C7.35161 12.0097 11.7626 7.59869 17.1538 7.59869C19.4818 7.59869 21.5647 8.45638 23.2801 9.80417V3.92288C23.2801 3.31025 22.6675 2.69761 22.0548 2.69761H22.0548Z" fill="#CCCCCC"/>
</g>
</g>
<path fill-rule="evenodd" clip-rule="evenodd" d="M17.1534 10.0491C13.11 10.0491 9.80176 13.3573 9.80176 17.4007C9.80176 21.4441 13.11 24.7523 17.1534 24.7523C21.1967 24.7523 24.505 21.4441 24.505 17.4007C24.505 13.3573 21.1967 10.0491 17.1534 10.0491ZM19.6039 18.6259H17.1534C16.4182 18.6259 15.9281 18.1358 15.9281 17.4007V13.7249C15.9281 12.9897 16.4182 12.4996 17.1534 12.4996C17.8885 12.4996 18.3786 12.9897 18.3786 13.7249V16.1754H19.6039C20.3391 16.1754 20.8292 16.6655 20.8292 17.4007C20.8292 18.1358 20.3391 18.626 19.6039 18.626V18.6259Z" fill="#CCCCCC"/>
</g>
<defs>
<clipPath id="clip0_108_5176">
<rect width="24.5052" height="24.5052" fill="white" transform="translate(0 0.24707)"/>
</clipPath>
<clipPath id="clip1_108_5176">
<rect width="23.2801" height="22.0548" fill="white" transform="translate(0 0.24707)"/>
</clipPath>
<clipPath id="clip2_108_5176">
<rect width="23.2801" height="22.0548" fill="white" transform="translate(0 0.24707)"/>
</clipPath>
</defs>
</svg>
