<svg width="19" height="19" viewBox="0 0 19 19" fill="none" xmlns="http://www.w3.org/2000/svg">
<g clip-path="url(#clip0_54_37)">
<path d="M15.375 9.35899C15.1978 9.35899 15.0279 9.42937 14.9027 9.55464C14.7774 9.67992 14.707 9.84982 14.707 10.027V16.712C14.707 16.8892 14.6366 17.0591 14.5113 17.1843C14.3861 17.3096 14.2162 17.38 14.039 17.38H2.005C1.82784 17.38 1.65793 17.3096 1.53265 17.1843C1.40738 17.0591 1.337 16.8892 1.337 16.712V3.34199C1.337 3.16482 1.40738 2.99491 1.53265 2.86964C1.65793 2.74437 1.82784 2.67399 2.005 2.67399H10.027C10.2043 2.67399 10.3743 2.60356 10.4997 2.47819C10.6251 2.35282 10.6955 2.18279 10.6955 2.00549C10.6955 1.82819 10.6251 1.65816 10.4997 1.53279C10.3743 1.40742 10.2043 1.33699 10.027 1.33699H2.005C1.47324 1.33699 0.963261 1.54823 0.587251 1.92424C0.21124 2.30025 0 2.81023 0 3.34199L0 16.712C0 17.2437 0.21124 17.7537 0.587251 18.1297C0.963261 18.5057 1.47324 18.717 2.005 18.717H14.038C14.5698 18.717 15.0797 18.5057 15.4557 18.1297C15.8318 17.7537 16.043 17.2437 16.043 16.712V10.027C16.043 9.84982 15.9726 9.67992 15.8473 9.55464C15.7221 9.42937 15.5522 9.35899 15.375 9.35899Z" fill="#207BF3"/>
<path d="M17.968 0.748993C17.7304 0.511364 17.4483 0.322866 17.1378 0.194262C16.8273 0.0656577 16.4945 -0.000534058 16.1585 -0.000534058C15.8224 -0.000534058 15.4897 0.0656577 15.1792 0.194262C14.8687 0.322866 14.5866 0.511364 14.349 0.748993L5.54399 9.54899C5.47103 9.62251 5.41595 9.71181 5.38298 9.80999L4.04599 13.821C4.01259 13.9215 4.00352 14.0284 4.01953 14.1331C4.03553 14.2378 4.07615 14.3371 4.13804 14.4231C4.19994 14.509 4.28134 14.579 4.37555 14.6273C4.46977 14.6756 4.57411 14.7009 4.67999 14.701C4.75168 14.7009 4.82289 14.6894 4.89099 14.667L8.90199 13.33C9.00038 13.297 9.08973 13.2415 9.16298 13.168L17.968 4.36299C18.4464 3.88329 18.715 3.23346 18.715 2.55599C18.715 1.87852 18.4464 1.2287 17.968 0.748993ZM17.023 3.42299L8.33299 12.113L5.73298 12.98L6.60199 10.388L15.295 1.69799C15.5239 1.46871 15.8345 1.33975 16.1584 1.33947C16.4824 1.33919 16.7932 1.46761 17.0225 1.69649C17.2518 1.92538 17.3807 2.23596 17.381 2.55993C17.3813 2.8839 17.2529 3.19471 17.024 3.42399L17.023 3.42299Z" fill="#207BF3"/>
</g>
<defs>
<clipPath id="clip0_54_37">
<rect width="18.718" height="18.717" fill="white"/>
</clipPath>
</defs>
</svg>
