<svg width="25" height="18" viewBox="0 0 25 18" fill="none" xmlns="http://www.w3.org/2000/svg">
<g clip-path="url(#clip0_108_5185)">
<g clip-path="url(#clip1_108_5185)">
<g clip-path="url(#clip2_108_5185)">
<path d="M23.6295 0.49707H0.875L12.2523 9.86844L23.7582 0.52333C23.7161 0.51102 23.673 0.50225 23.6295 0.49707H23.6295Z" fill="#CCCCCC"/>
</g>
</g>
<g clip-path="url(#clip3_108_5185)">
<g clip-path="url(#clip4_108_5185)">
<path d="M12.8047 11.6788C12.4822 11.9428 12.0183 11.9428 11.6958 11.6788L0 2.04309V17.1259C0 17.6092 0.39183 18.001 0.87519 18.001H23.6297C24.1131 18.001 24.5049 17.6092 24.5049 17.1259V2.17263L12.8047 11.6788Z" fill="#CCCCCC"/>
</g>
</g>
</g>
<defs>
<clipPath id="clip0_108_5185">
<rect width="24.5049" height="17.504" fill="white" transform="translate(0 0.49707)"/>
</clipPath>
<clipPath id="clip1_108_5185">
<rect width="22.8832" height="9.37137" fill="white" transform="translate(0.875 0.49707)"/>
</clipPath>
<clipPath id="clip2_108_5185">
<rect width="22.8832" height="9.37137" fill="white" transform="translate(0.875 0.49707)"/>
</clipPath>
<clipPath id="clip3_108_5185">
<rect width="24.5049" height="15.9579" fill="white" transform="translate(0 2.04309)"/>
</clipPath>
<clipPath id="clip4_108_5185">
<rect width="24.5049" height="15.9579" fill="white" transform="translate(0 2.04309)"/>
</clipPath>
</defs>
</svg>
