<svg width="24" height="24" viewBox="0 0 24 24" fill="none" xmlns="http://www.w3.org/2000/svg">
<g clip-path="url(#clip0_108_5197)">
<path d="M5.39998 12.0203C5.39998 10.8788 5.71448 9.80947 6.26087 8.89386V5.01001H2.37703C0.83556 7.01196 0 9.45182 0 12.0203C0 14.5888 0.83556 17.0287 2.37703 19.0306H6.26087V15.1468C5.71448 14.2311 5.39998 13.1618 5.39998 12.0203Z" fill="#FBBD00"/>
<path d="M11.5203 18.1397L8.82031 20.8397L11.5203 23.5397C14.0888 23.5397 16.5286 22.7042 18.5306 21.1627V17.283H14.6509C13.7273 17.8313 12.6534 18.1397 11.5203 18.1397Z" fill="#0F9D58"/>
<path d="M6.2608 15.146L2.37695 19.0299C2.68214 19.4262 3.01446 19.8058 3.37406 20.1655C5.54989 22.3412 8.44279 23.5395 11.5199 23.5395V18.1395C9.28681 18.1395 7.32963 16.9371 6.26079 15.146H6.2608Z" fill="#31AA52"/>
<path d="M23.0395 12.0204C23.0395 11.3195 22.976 10.6174 22.8508 9.93347L22.7495 9.38H11.5195V14.78H16.9848C16.4541 15.8357 15.6381 16.6971 14.6501 17.2837L18.5298 21.1634C18.9261 20.8582 19.3057 20.5259 19.6653 20.1663C21.8412 17.9904 23.0395 15.0975 23.0395 12.0204Z" fill="#3C79E6"/>
<path d="M15.8478 7.69246L16.3251 8.16973L20.1434 4.3514L19.6662 3.87413C17.4903 1.6983 14.5974 0.5 11.5203 0.5L8.82031 3.19999L11.5203 5.89998C13.155 5.89998 14.6918 6.53655 15.8478 7.69246H15.8478Z" fill="#CF2D48"/>
<path d="M11.5199 5.89998V0.5C8.44283 0.5 5.54993 1.6983 3.37405 3.87409C3.01446 4.23368 2.68213 4.61326 2.37695 5.00966L6.2608 8.89351C7.32968 7.10238 9.28685 5.89999 11.5199 5.89999L11.5199 5.89998Z" fill="#EB4132"/>
</g>
<defs>
<clipPath id="clip0_108_5197">
<rect width="23.04" height="23.0397" fill="white" transform="translate(0 0.5)"/>
</clipPath>
</defs>
</svg>
