<svg width="51" height="32" viewBox="0 0 51 32" fill="none" xmlns="http://www.w3.org/2000/svg">
<g clip-path="url(#clip0_144_22)">
<g clip-path="url(#clip1_144_22)">
<g clip-path="url(#clip2_144_22)">
<path d="M40.0223 22.1402C39.0381 20.0882 35.517 17.2399 32.1151 14.4879C30.2177 12.954 28.4248 11.5039 27.2818 10.3609C26.9955 10.0725 26.5672 9.98053 26.189 10.1164C25.4848 10.3714 25.0501 10.5677 24.7074 10.7203C24.1851 10.9543 24.0095 11.0337 23.3053 11.1047C22.9939 11.1361 22.7139 11.3033 22.5405 11.5623C21.0631 13.7711 19.5334 13.583 18.5116 13.2404C18.1856 13.1317 18.1272 12.9916 18.0958 12.8579C17.8764 11.9406 18.9777 9.80499 20.4048 8.37773C23.8005 4.97998 25.5516 4.12946 29.2503 5.7824C33.4462 7.65886 37.6506 9.12794 37.6924 9.14254C38.242 9.33266 38.8334 9.0443 39.0235 8.49889C39.2116 7.9535 38.9252 7.35795 38.3798 7.16782C38.338 7.15323 34.2173 5.71344 30.1049 3.87244C25.3134 1.73053 22.6845 3.14103 18.9295 6.89826C17.5001 8.32757 15.5588 11.2196 16.0604 13.3407C16.2756 14.2434 16.9109 14.9121 17.8553 15.2234C20.2229 16.0049 22.3835 15.2568 23.9926 13.1212C24.6571 13.0189 25.0186 12.8684 25.5619 12.6239C25.7583 12.5362 25.9881 12.4338 26.2933 12.3105C27.4886 13.4326 29.1017 14.7386 30.8006 16.1115C33.8724 18.5961 37.3559 21.4129 38.1395 23.0429C38.5261 23.8473 38.1102 24.3719 37.8281 24.6122C37.4143 24.9674 36.8481 25.0802 36.5409 24.8649C36.2024 24.633 35.7615 24.6184 35.4125 24.8273C35.0614 25.0363 34.865 25.4312 34.9089 25.8366C34.9799 26.5012 34.3718 26.8815 34.1086 27.0131C33.4398 27.3517 32.7419 27.2932 32.4807 27.0508C32.1881 26.7791 31.7681 26.6997 31.3962 26.8376C31.0242 26.9776 30.7651 27.3203 30.7275 27.7173C30.6648 28.4027 30.157 29.0609 29.4945 29.3179C29.1748 29.4391 28.7109 29.5123 28.2951 29.1319C28.036 28.8979 27.6765 28.808 27.3402 28.8895C26.9996 28.9731 26.7258 29.2197 26.6067 29.5477C26.567 29.6522 26.4771 29.903 25.4992 29.903C24.8033 29.903 23.5516 29.4329 22.9394 29.0274C22.2059 28.5447 17.6066 25.1136 13.6343 21.7868C13.0764 21.3167 12.1109 20.3094 11.2584 19.4192C10.5019 18.6294 9.81026 17.9127 9.45498 17.6117C9.00989 17.2356 8.35166 17.292 7.98179 17.7351C7.60987 18.1759 7.66413 18.8363 8.10511 19.2083C8.42904 19.482 9.05593 20.1444 9.74757 20.8653C10.6796 21.839 11.6428 22.8463 12.2907 23.3896C16.1816 26.6474 20.8582 30.1643 21.7901 30.7765C22.5592 31.2822 24.2162 31.9926 25.4993 31.9926C26.5294 31.9926 27.3215 31.7564 27.871 31.2947C28.6065 31.581 29.4424 31.5831 30.2469 31.2696C31.1977 30.9018 31.9792 30.16 32.4222 29.2615C33.2455 29.4371 34.188 29.3137 35.0447 28.8833C35.8827 28.4613 36.4886 27.8156 36.7895 27.0611C37.6212 27.105 38.4779 26.8104 39.1863 26.2023C40.3859 25.1764 40.716 23.58 40.0223 22.1401V22.1402Z" fill="#207BF3"/>
</g>
</g>
<g clip-path="url(#clip3_144_22)">
<g clip-path="url(#clip4_144_22)">
<path d="M21.3202 4.82703H11.9168C11.3401 4.82703 10.8719 5.29515 10.8719 5.87189C10.8719 6.44863 11.3401 6.91674 11.9168 6.91674H21.3202C21.8969 6.91674 22.365 6.44863 22.365 5.87189C22.365 5.29515 21.8969 4.82703 21.3202 4.82703Z" fill="#207BF3"/>
</g>
</g>
<g clip-path="url(#clip5_144_22)">
<g clip-path="url(#clip6_144_22)">
<path d="M43.084 19.9167C42.7601 19.4382 42.1123 19.3065 41.6338 19.6325L38.5788 21.6845C38.1003 22.0063 37.9728 22.6562 38.2947 23.1347C38.4973 23.4335 38.8275 23.5965 39.164 23.5965C39.3625 23.5965 39.5652 23.5401 39.7449 23.419L42.7999 21.367C43.2783 21.0451 43.4058 20.3953 43.084 19.9167H43.084Z" fill="#207BF3"/>
</g>
</g>
<g clip-path="url(#clip7_144_22)">
<g clip-path="url(#clip8_144_22)">
<path d="M36.598 24.9028C35.85 24.3135 32.5044 20.8886 30.4357 18.7321C30.0366 18.3141 29.3742 18.2995 28.9583 18.7007C28.5403 19.0999 28.5278 19.7623 28.9269 20.1782C29.464 20.7382 34.2012 25.676 35.3024 26.5453C35.4925 26.6958 35.7224 26.769 35.9481 26.769C36.2553 26.769 36.5625 26.631 36.7714 26.3698C37.1288 25.9183 37.0515 25.2601 36.598 24.9028V24.9028Z" fill="#207BF3"/>
</g>
</g>
<g clip-path="url(#clip9_144_22)">
<g clip-path="url(#clip10_144_22)">
<path d="M32.4224 26.9982C31.1707 25.9973 28.0259 22.656 27.3153 21.8828C26.9225 21.4565 26.2642 21.4315 25.8379 21.8201C25.4137 22.2109 25.3845 22.8733 25.7753 23.2975C25.8129 23.3372 29.5659 27.3891 31.1163 28.6303C31.3086 28.7828 31.5406 28.858 31.7683 28.858C32.0734 28.858 32.3785 28.7222 32.5853 28.4673C32.9449 28.0159 32.8717 27.3576 32.4224 26.9982V26.9982Z" fill="#207BF3"/>
</g>
</g>
<g clip-path="url(#clip11_144_22)">
<g clip-path="url(#clip12_144_22)">
<path d="M28.2638 29.1025C26.7739 27.8467 23.7251 24.6015 23.1296 23.9641C22.7347 23.542 22.0722 23.519 21.6522 23.9139C21.2301 24.3089 21.2092 24.9692 21.602 25.3913C22.4588 26.3087 25.3759 29.4014 26.916 30.7011C27.1124 30.8662 27.3506 30.9477 27.5888 30.9477C27.8855 30.9477 28.1823 30.8202 28.3892 30.5757C28.7611 30.1327 28.7047 29.4744 28.2638 29.1025V29.1025Z" fill="#207BF3"/>
</g>
</g>
<g clip-path="url(#clip13_144_22)">
<g clip-path="url(#clip14_144_22)">
<path fill-rule="evenodd" clip-rule="evenodd" d="M12.6358 3.02329C10.8449 1.32647 3.68379 0.776872 1.53149 0.649432C1.23479 0.634832 0.96102 0.732982 0.75209 0.931532C0.54306 1.12792 0.42395 1.40376 0.42395 1.69213V20.4989C0.42395 21.0756 0.89206 21.5437 1.4688 21.5437H7.73771C8.18907 21.5437 8.59028 21.2533 8.73025 20.8228C8.88276 20.3547 12.4833 9.30475 12.9576 3.87166C12.9848 3.554 12.8677 3.24056 12.6358 3.0233L12.6358 3.02329ZM6.97496 19.4541H2.51355V2.81219C5.87163 3.07755 9.49506 3.65428 10.8115 4.29372C10.2578 8.87002 7.7523 17.0008 6.97496 19.4541Z" fill="#207BF3"/>
</g>
</g>
<g clip-path="url(#clip15_144_22)">
<g clip-path="url(#clip16_144_22)">
<path fill-rule="evenodd" clip-rule="evenodd" d="M49.5304 2.737C41.3265 2.737 36.7752 4.83709 36.5851 4.92485C36.3135 5.05228 36.1108 5.28844 36.0272 5.57476C35.9436 5.86107 35.9854 6.16824 36.1421 6.42311C37.4335 8.50234 41.4769 20.0497 42.2542 22.8665C42.3796 23.3199 42.7913 23.6333 43.2615 23.6333H49.5304C50.1071 23.6333 50.5753 23.1652 50.5753 22.5885V3.78175C50.5753 3.20295 50.1071 2.737 49.5304 2.737ZM48.4857 21.5437H44.0431C43.0525 18.3173 40.127 9.90441 38.4951 6.42733C40.0894 5.88615 43.5144 4.95619 48.4857 4.83924V21.5437Z" fill="#207BF3"/>
</g>
</g>
</g>
<defs>
<clipPath id="clip0_144_22">
<rect width="50.1513" height="31.3446" fill="white" transform="translate(0.42395 0.64801)"/>
</clipPath>
<clipPath id="clip1_144_22">
<rect width="32.6461" height="29.1246" fill="white" transform="translate(7.73499 2.86798)"/>
</clipPath>
<clipPath id="clip2_144_22">
<rect width="32.6461" height="29.1246" fill="white" transform="translate(7.73499 2.86798)"/>
</clipPath>
<clipPath id="clip3_144_22">
<rect width="11.4931" height="2.08971" fill="white" transform="translate(10.8719 4.82703)"/>
</clipPath>
<clipPath id="clip4_144_22">
<rect width="11.4931" height="2.08971" fill="white" transform="translate(10.8719 4.82703)"/>
</clipPath>
<clipPath id="clip5_144_22">
<rect width="5.14472" height="4.14354" fill="white" transform="translate(38.1169 19.453)"/>
</clipPath>
<clipPath id="clip6_144_22">
<rect width="5.14472" height="4.14354" fill="white" transform="translate(38.1169 19.453)"/>
</clipPath>
<clipPath id="clip7_144_22">
<rect width="8.36006" height="8.35998" fill="white" transform="translate(28.636 18.409)"/>
</clipPath>
<clipPath id="clip8_144_22">
<rect width="8.36006" height="8.35998" fill="white" transform="translate(28.636 18.409)"/>
</clipPath>
<clipPath id="clip9_144_22">
<rect width="7.31365" height="7.31307" fill="white" transform="translate(25.5 21.545)"/>
</clipPath>
<clipPath id="clip10_144_22">
<rect width="7.31365" height="7.31307" fill="white" transform="translate(25.5 21.545)"/>
</clipPath>
<clipPath id="clip11_144_22">
<rect width="7.3142" height="7.31564" fill="white" transform="translate(21.3209 23.632)"/>
</clipPath>
<clipPath id="clip12_144_22">
<rect width="7.3142" height="7.31564" fill="white" transform="translate(21.3209 23.632)"/>
</clipPath>
<clipPath id="clip13_144_22">
<rect width="12.5375" height="20.8957" fill="white" transform="translate(0.42395 0.64801)"/>
</clipPath>
<clipPath id="clip14_144_22">
<rect width="12.5375" height="20.8957" fill="white" transform="translate(0.42395 0.64801)"/>
</clipPath>
<clipPath id="clip15_144_22">
<rect width="14.5903" height="20.8963" fill="white" transform="translate(35.985 2.737)"/>
</clipPath>
<clipPath id="clip16_144_22">
<rect width="14.5903" height="20.8963" fill="white" transform="translate(35.985 2.737)"/>
</clipPath>
</defs>
</svg>
