<svg width="37" height="53" viewBox="0 0 37 53" fill="none" xmlns="http://www.w3.org/2000/svg">
<g clip-path="url(#clip0_144_92)">
<path fill-rule="evenodd" clip-rule="evenodd" d="M35.9624 0.722005H7.68917C7.46857 0.721925 7.25696 0.809405 7.10084 0.965235L0.448308 7.61776C0.292478 7.77389 0.204988 7.9855 0.205078 8.20609V51.4476C0.205078 51.9068 0.577388 52.2791 1.03665 52.2791H35.9624C36.4217 52.2791 36.794 51.9068 36.794 51.4476V1.55355C36.794 1.09429 36.4217 0.721985 35.9624 0.721985L35.9624 0.722005ZM6.8576 3.56076V7.37453H3.04383L6.8576 3.56076ZM35.1309 50.616H1.86821V9.03767H7.68918C8.14844 9.03767 8.52075 8.66535 8.52075 8.20609V2.38512H28.4783V9.03765C28.4784 10.4154 29.5953 11.5324 30.9731 11.5324C32.3508 11.5324 33.4678 10.4154 33.4678 9.03765V5.71138C33.4678 5.25212 33.0954 4.87982 32.6362 4.87982C32.1769 4.87982 31.8046 5.25212 31.8046 5.71138V9.03765C31.8046 9.49691 31.4323 9.86922 30.9731 9.86922C30.5138 9.86922 30.1415 9.49691 30.1415 9.03765V2.38512H35.1309L35.1309 50.616Z" fill="#207BF3"/>
<path fill-rule="evenodd" clip-rule="evenodd" d="M14.3416 18.1851H16.0047V19.8482C16.0047 20.3075 16.377 20.6798 16.8363 20.6798H20.1625C20.6218 20.6798 20.9941 20.3075 20.9941 19.8482V18.1851H22.6572C23.1165 18.1851 23.4888 17.8128 23.4888 17.3535V14.0273C23.4888 13.568 23.1165 13.1957 22.6572 13.1957H20.9941V11.5326C20.9941 11.0733 20.6218 10.701 20.1625 10.701H16.8363C16.377 10.701 16.0047 11.0733 16.0047 11.5326V13.1957H14.3416C13.8823 13.1957 13.51 13.568 13.51 14.0273V17.3535C13.51 17.8128 13.8823 18.1851 14.3416 18.1851ZM15.1731 14.8588H16.8363C17.2955 14.8588 17.6678 14.4865 17.6678 14.0273V12.3641H19.331V14.0273C19.331 14.4865 19.7033 14.8588 20.1625 14.8588H21.8257V16.522H20.1625C19.7033 16.522 19.331 16.8943 19.331 17.3535V19.0167H17.6678V17.3535C17.6678 16.8943 17.2955 16.522 16.8363 16.522H15.1731V14.8588Z" fill="#207BF3"/>
<path d="M31.8047 23.174H5.19461C4.73534 23.174 4.36304 23.5463 4.36304 24.0056C4.36304 24.4648 4.73535 24.8371 5.19461 24.8371H31.8047C32.264 24.8371 32.6363 24.4648 32.6363 24.0056C32.6363 23.5463 32.264 23.174 31.8047 23.174Z" fill="#207BF3"/>
<path d="M31.8047 26.501H5.19461C4.73534 26.501 4.36304 26.8733 4.36304 27.3325C4.36304 27.7918 4.73535 28.1641 5.19461 28.1641H31.8047C32.264 28.1641 32.6363 27.7918 32.6363 27.3325C32.6363 26.8733 32.264 26.501 31.8047 26.501Z" fill="#207BF3"/>
<path d="M5.19461 31.4901H20.1628C20.6221 31.4901 20.9944 31.1178 20.9944 30.6585C20.9944 30.1993 20.6221 29.827 20.1628 29.827H5.19461C4.73534 29.827 4.36304 30.1993 4.36304 30.6585C4.36304 31.1178 4.73535 31.4901 5.19461 31.4901Z" fill="#207BF3"/>
<path d="M23.4893 31.4901C23.9485 31.4901 24.3209 31.1178 24.3209 30.6585C24.3209 30.1993 23.9485 29.827 23.4893 29.827H22.6577C22.1985 29.827 21.8262 30.1993 21.8262 30.6585C21.8262 31.1178 22.1985 31.4901 22.6577 31.4901H23.4893Z" fill="#207BF3"/>
<path d="M31.8047 34.816H5.19461C4.73534 34.816 4.36304 35.1883 4.36304 35.6475C4.36304 36.1068 4.73535 36.4791 5.19461 36.4791H31.8047C32.264 36.4791 32.6363 36.1068 32.6363 35.6475C32.6363 35.1883 32.264 34.816 31.8047 34.816Z" fill="#207BF3"/>
<path d="M31.8047 38.143H5.19461C4.73534 38.143 4.36304 38.5153 4.36304 38.9745C4.36304 39.4338 4.73535 39.8061 5.19461 39.8061H31.8047C32.264 39.8061 32.6363 39.4338 32.6363 38.9745C32.6363 38.5153 32.264 38.143 31.8047 38.143Z" fill="#207BF3"/>
<path d="M20.1628 41.469H5.19461C4.73534 41.469 4.36304 41.8413 4.36304 42.3005C4.36304 42.7598 4.73535 43.1321 5.19461 43.1321H20.1628C20.6221 43.1321 20.9944 42.7598 20.9944 42.3005C20.9944 41.8413 20.6221 41.469 20.1628 41.469Z" fill="#207BF3"/>
<path d="M23.4893 41.469H22.6577C22.1985 41.469 21.8262 41.8413 21.8262 42.3005C21.8262 42.7598 22.1985 43.1321 22.6577 43.1321H23.4893C23.9485 43.1321 24.3209 42.7598 24.3209 42.3005C24.3209 41.8413 23.9485 41.469 23.4893 41.469Z" fill="#207BF3"/>
</g>
<defs>
<clipPath id="clip0_144_92">
<rect width="36.5889" height="51.5571" fill="white" transform="translate(0.205078 0.721985)"/>
</clipPath>
</defs>
</svg>
