<svg width="22" height="19" viewBox="0 0 22 19" fill="none" xmlns="http://www.w3.org/2000/svg">
<path d="M18.334 7.50427C18.334 6.52077 18.1443 5.54691 17.7757 4.63828C17.4071 3.72965 16.8669 2.90404 16.1859 2.20861C15.5049 1.51317 14.6965 0.961524 13.8067 0.585156C12.9169 0.208789 11.9633 0.0150757 11.0002 0.0150757C10.0371 0.0150757 9.08344 0.208789 8.19366 0.585156C7.30389 0.961524 6.49542 1.51317 5.81441 2.20861C5.13341 2.90404 4.59321 3.72965 4.22465 4.63828C3.85609 5.54691 3.6664 6.52077 3.6664 7.50427C3.6664 16.2466 -0.000488281 18.7435 -0.000488281 18.7435H22.0008C22.0008 18.7435 18.334 16.2466 18.334 7.50427Z" fill="black"/>
</svg>
