<svg width="25" height="34" viewBox="0 0 25 34" fill="none" xmlns="http://www.w3.org/2000/svg">
<g clip-path="url(#clip0_113_5984)">
<g clip-path="url(#clip1_113_5984)">
<g clip-path="url(#clip2_113_5984)">
<path fill-rule="evenodd" clip-rule="evenodd" d="M14.2616 14.061C14.0267 13.8596 13.7582 13.7254 13.4562 13.6247C13.1542 13.5576 12.8186 13.524 12.4159 13.524H10.8723C10.6038 13.524 10.436 13.5912 10.3018 13.6918C10.2011 13.7925 10.134 13.9939 10.134 14.2623V18.5912C10.134 18.7926 10.134 18.9268 10.2011 19.061C10.2347 19.1953 10.3018 19.2624 10.4025 19.3295C10.5031 19.3966 10.6709 19.4302 10.9059 19.4302H12.4495C12.718 19.4302 12.9529 19.3966 13.1878 19.3631C13.3891 19.3295 13.5905 19.2624 13.7918 19.1953C13.9931 19.0946 14.1609 18.9939 14.2952 18.8597C14.4965 18.6584 14.6643 18.457 14.7985 18.2221C14.9328 17.9872 15.0334 17.7187 15.1005 17.4167C15.1677 17.1147 15.2012 16.8127 15.2012 16.4435C15.2012 15.4033 14.8992 14.5979 14.2616 14.061L14.2616 14.061ZM13.3891 18.2221C13.2884 18.2892 13.1878 18.3563 13.0871 18.3899C12.9529 18.4235 12.8522 18.457 12.7515 18.457C12.6509 18.457 12.4831 18.457 12.2817 18.457H11.3756V14.4301H12.181C12.5502 14.4301 12.8522 14.4637 13.1206 14.5643C13.3891 14.6314 13.5905 14.8328 13.7582 15.1348C13.926 15.4368 14.0267 15.8731 14.0267 16.4436C13.9931 17.3161 13.7918 17.8865 13.3891 18.2221Z" fill="#6D6D6D"/>
<path fill-rule="evenodd" clip-rule="evenodd" d="M24.9333 6.61086L24.8997 6.5773V6.54374L18.5238 0.1678L18.4902 0.13424C18.4902 0.13424 18.4567 0.13424 18.4567 0.10068C18.4567 0.10068 18.4231 0.10068 18.4231 0.06712C18.3224 0 18.2218 0 18.0875 0H2.28191C1.67788 0 1.1074 0.2349 0.70471 0.63759L0.67115 0.67115C0.26846 1.07384 0 1.67788 0 2.28191V30.8394C0 31.477 0.26846 32.0475 0.67115 32.4502C1.07384 32.8529 1.67788 33.1213 2.28191 33.1213H22.7185C23.3561 33.1213 23.9265 32.8529 24.3292 32.4502C24.7319 32.0475 25.0004 31.4434 25.0004 30.8394V6.94641C25.0004 6.81218 24.9668 6.71151 24.9333 6.61083V6.61086ZM18.7251 2.41617L22.5171 6.20818H19.7318C19.4634 6.20818 19.1949 6.10751 19.0271 5.90616C18.8593 5.73837 18.7251 5.46991 18.7251 5.20145V2.41617ZM23.5574 30.8394C23.5574 31.0743 23.4567 31.2757 23.2889 31.4435C23.1212 31.6113 22.9198 31.7119 22.6849 31.7119H2.28191C2.04701 31.7119 1.84566 31.6113 1.67788 31.477C1.51009 31.3092 1.44298 31.1079 1.44298 30.873V2.24838C1.44298 2.01348 1.54365 1.81213 1.71144 1.64434L1.745 1.61078C1.91279 1.47655 2.11413 1.37588 2.31548 1.37588H17.3493V5.16789C17.3493 5.83904 17.6177 6.44308 18.0875 6.91288C18.5238 7.34913 19.1614 7.61759 19.8325 7.61759H23.5574L23.5574 30.8394Z" fill="#6D6D6D"/>
<path fill-rule="evenodd" clip-rule="evenodd" d="M8.59077 13.9933C8.42298 13.8255 8.22163 13.7248 7.95317 13.6577C7.71828 13.5906 7.34914 13.557 6.91289 13.557H5.36925C5.10079 13.557 4.89944 13.6241 4.79877 13.7248C4.66454 13.8255 4.63098 14.0268 4.63098 14.2953V18.8591C4.63098 19.094 4.69809 19.2618 4.79877 19.396C4.89944 19.5303 5.06723 19.5638 5.23502 19.5638C5.40281 19.5638 5.53704 19.4967 5.67127 19.3625C5.77194 19.2283 5.83906 19.0605 5.83906 18.8256V17.1477H6.94645C7.68472 17.1477 8.22164 16.9799 8.59078 16.6779C8.95991 16.3759 9.16125 15.9061 9.16125 15.302C9.16125 15.0336 9.1277 14.7651 9.02703 14.5302C8.8928 14.3289 8.75857 14.1275 8.59078 13.9933L8.59077 13.9933ZM7.78538 15.8725C7.68471 16.0067 7.55048 16.1074 7.34913 16.1745C7.14779 16.2416 6.91288 16.2752 6.64442 16.2752H5.83905V14.4631H6.64442C7.18135 14.4631 7.51692 14.5637 7.71827 14.7315C7.88606 14.8993 7.95316 15.1007 7.95316 15.3691C7.91961 15.5705 7.88605 15.7383 7.78537 15.8725H7.78538Z" fill="#6D6D6D"/>
<path d="M16.9802 13.49C16.7789 13.5236 16.6447 13.5571 16.544 13.6243C16.4433 13.6578 16.3426 13.7585 16.3091 13.8591C16.2419 13.9598 16.2419 14.094 16.2419 14.2954V18.8257C16.2419 19.0606 16.3091 19.2619 16.4097 19.3626C16.5104 19.4968 16.6782 19.5304 16.846 19.5304C17.0138 19.5304 17.148 19.4633 17.2822 19.3626C17.3829 19.2283 17.45 19.0606 17.45 18.8257V16.8793H19.4299C19.5977 16.8793 19.7319 16.8458 19.8326 16.7451C19.9333 16.678 19.9668 16.5437 19.9668 16.4095C19.9668 16.2753 19.9333 16.1746 19.8326 16.0739C19.7319 16.0068 19.5977 15.9397 19.4299 15.9397H17.45V14.4296H19.7991C20.0004 14.4296 20.1346 14.3961 20.2353 14.2954C20.336 14.1947 20.3696 14.094 20.3696 13.9598C20.3696 13.8256 20.336 13.7249 20.2353 13.6242C20.1346 13.5236 20.0004 13.49 19.7991 13.49L16.9802 13.49Z" fill="#6D6D6D"/>
</g>
</g>
</g>
<defs>
<clipPath id="clip0_113_5984">
<rect width="25.0004" height="33.1213" fill="white"/>
</clipPath>
<clipPath id="clip1_113_5984">
<rect width="25.0004" height="33.1213" fill="white"/>
</clipPath>
<clipPath id="clip2_113_5984">
<rect width="25.0004" height="33.1213" fill="white"/>
</clipPath>
</defs>
</svg>
