<svg width="102" height="102" viewBox="0 0 102 102" fill="none" xmlns="http://www.w3.org/2000/svg">
<path d="M94.0312 44.9437C93.075 44.3062 91.8 44.3062 90.8438 44.9437L76.1812 52.2749C75.5437 47.8124 71.7188 44.6249 66.9375 44.6249H22.3125C16.8937 44.6249 12.75 48.7687 12.75 54.1875V73.3124C12.75 78.7312 16.8937 82.875 22.3125 82.875H38.5688L29.0063 96.8999C28.05 98.4937 28.3687 100.406 29.9625 101.362C31.5562 102.319 33.4688 102 34.425 100.406L44.625 85.1062L54.825 100.406C55.4625 101.362 56.4188 101.681 57.375 101.681C58.0125 101.681 58.65 101.362 59.2875 101.044C60.8813 100.087 61.2 98.1749 60.2437 96.5812L50.6812 82.5562H66.9375C71.7188 82.5562 75.5437 79.3687 76.1812 74.9062L90.8438 82.2374C91.4812 82.8749 91.8 82.875 92.4375 82.875C93.075 82.875 93.7125 82.5562 94.0312 82.5562C94.9875 81.9187 95.625 80.9624 95.625 79.6875V47.8124C95.625 46.8562 94.9875 45.5812 94.0312 44.9437Z" fill="white"/>
<path d="M60.5625 3.1875C53.8688 3.1875 48.1312 6.69375 44.625 11.7937C41.1187 6.69375 35.3813 3.1875 28.6875 3.1875C18.1687 3.1875 9.5625 11.7937 9.5625 22.3125C9.5625 32.8312 18.1687 41.4375 28.6875 41.4375C35.3813 41.4375 41.1187 37.9313 44.625 32.8313C48.1312 37.9313 53.8688 41.4375 60.5625 41.4375C71.0812 41.4375 79.6875 32.8312 79.6875 22.3125C79.6875 11.7937 71.0812 3.1875 60.5625 3.1875ZM28.6875 28.6875C25.1812 28.6875 22.3125 25.8188 22.3125 22.3125C22.3125 18.8062 25.1812 15.9375 28.6875 15.9375C32.1938 15.9375 35.0625 18.8062 35.0625 22.3125C35.0625 25.8188 32.1938 28.6875 28.6875 28.6875ZM60.5625 28.6875C57.0563 28.6875 54.1875 25.8188 54.1875 22.3125C54.1875 18.8062 57.0563 15.9375 60.5625 15.9375C64.0687 15.9375 66.9375 18.8062 66.9375 22.3125C66.9375 25.8188 64.0687 28.6875 60.5625 28.6875Z" fill="white"/>
</svg>
