<svg width="49" height="49" viewBox="0 0 49 49" fill="none" xmlns="http://www.w3.org/2000/svg">
<g clip-path="url(#clip0_144_75)">
<path fill-rule="evenodd" clip-rule="evenodd" d="M46.9207 41.9047L40.2837 35.2677V0.809021H7.27035V8.64293L0.479004 10.5341L7.27035 34.9229V42.5819H9.4031L11.0917 48.646L32.8692 42.5819H36.347L41.2953 47.5302C42.0708 48.3057 43.0894 48.6934 44.1081 48.6934C45.1267 48.6934 46.1453 48.3056 46.9208 47.5302C48.4716 45.9792 48.4716 43.4556 46.9207 41.9047H46.9207ZM3.93716 12.4858L7.27027 11.5576V24.4556L3.93716 12.4858ZM13.0434 45.1878L12.3178 42.5818H22.4019L13.0434 45.1878ZM10.0782 39.774V3.61688H37.4759V32.4599L32.8739 27.858H33.5448V25.0501H30.0661L27.0711 22.0551H33.5448V19.2473H21.7344L16.808 17.4174L17.4877 19.2473H14.4515V22.0551H18.5306L19.6431 25.0501H14.4515V27.858H21.6232L24.6182 30.853H14.4514V33.6609H27.426L33.539 39.774L10.0782 39.774ZM22.5509 24.8148L21.5732 22.1826L24.2055 23.1603L42.1226 41.0775L41.2953 41.9047L40.468 42.732L22.5509 24.8148ZM44.9353 45.5447C44.479 46.0009 43.7369 46.0008 43.2807 45.5447L42.4534 44.7175L43.2807 43.8902L44.108 43.0629L44.9352 43.8901C45.3914 44.3463 45.3914 45.0886 44.9353 45.5447V45.5447Z" fill="#207BF3"/>
<path d="M14.6389 7.64099H25.2152V10.4488H14.6389V7.64099Z" fill="#207BF3"/>
<path d="M14.6389 13.444H33.5451V16.2519H14.6389V13.444Z" fill="#207BF3"/>
</g>
<defs>
<clipPath id="clip0_144_75">
<rect width="47.6048" height="47.8843" fill="white" transform="translate(0.479004 0.809021)"/>
</clipPath>
</defs>
</svg>
