<svg width="21" height="27" viewBox="0 0 21 27" fill="none" xmlns="http://www.w3.org/2000/svg">
<path fill-rule="evenodd" clip-rule="evenodd" d="M20.8 9.186C20.7865 9.06658 20.7603 8.94892 20.722 8.835V8.718C20.6595 8.58433 20.5761 8.46146 20.475 8.354L12.675 0.554001C12.5675 0.452881 12.4447 0.369511 12.311 0.307001H12.194L11.778 0.164001H3.9C1.74609 0.164001 0 1.91009 0 4.064V22.264C0 24.4179 1.74609 26.164 3.9 26.164H16.9C19.0539 26.164 20.8 24.4179 20.8 22.264V9.264C20.8 9.264 20.8 9.264 20.8 9.186ZM13 4.597L16.367 7.964H13V4.597ZM18.2 22.264C18.2 22.982 17.618 23.564 16.9 23.564H3.9C3.18203 23.564 2.6 22.982 2.6 22.264V4.064C2.6 3.34603 3.18203 2.764 3.9 2.764H10.4V9.264C10.4 9.98197 10.982 10.564 11.7 10.564H18.2V22.264Z" fill="#D1D1D1"/>
</svg>
