<svg width="24" height="27" viewBox="0 0 24 27" fill="none" xmlns="http://www.w3.org/2000/svg">
<g clip-path="url(#clip0_108_5173)">
<path fill-rule="evenodd" clip-rule="evenodd" d="M11.8294 13.0059C13.6161 13.0059 15.1633 12.3651 16.4275 11.1007C17.6917 9.83655 18.3325 8.28975 18.3325 6.50277C18.3325 4.7164 17.6917 3.1694 16.4273 1.90481C15.1629 0.64084 13.6159 0 11.8294 0C10.0424 0 8.49556 0.64084 7.23139 1.90502C5.96721 3.1692 5.32617 4.7162 5.32617 6.50277C5.32617 8.28975 5.96721 9.83676 7.2316 11.1009C8.49598 12.3649 10.043 13.0059 11.8294 13.0059H11.8294Z" fill="#CCCCCC"/>
<path fill-rule="evenodd" clip-rule="evenodd" d="M23.2088 20.7616C23.1724 20.2355 23.0986 19.6616 22.9901 19.0555C22.8805 18.445 22.7394 17.8678 22.5705 17.3402C22.396 16.795 22.1587 16.2565 21.8653 15.7405C21.5609 15.2049 21.2033 14.7386 20.802 14.3548C20.3824 13.9533 19.8687 13.6305 19.2746 13.3951C18.6826 13.1609 18.0265 13.0422 17.3246 13.0422C17.049 13.0422 16.7825 13.1553 16.2677 13.4905C15.9509 13.6971 15.5803 13.936 15.1667 14.2003C14.813 14.4256 14.3338 14.6368 13.742 14.828C13.1646 15.0148 12.5784 15.1096 11.9997 15.1096C11.4211 15.1096 10.8351 15.0148 10.257 14.828C9.66583 14.637 9.18669 14.4259 8.83342 14.2005C8.4237 13.9387 8.05291 13.6997 7.73136 13.4902C7.2172 13.1551 6.95044 13.042 6.67482 13.042C5.9728 13.042 5.31692 13.1609 4.7251 13.3953C4.13143 13.6303 3.61748 13.9531 3.19746 14.355C2.79639 14.739 2.43858 15.2051 2.13454 15.7405C1.84141 16.2565 1.60411 16.7948 1.42943 17.3404C1.26072 17.868 1.11962 18.445 1.01003 19.0555C0.901475 19.6607 0.827735 20.2349 0.791275 20.7622C0.755435 21.2788 0.737305 21.815 0.737305 22.3566C0.737305 23.766 1.18533 24.907 2.06884 25.7484C2.94143 26.5788 4.09601 27 5.50006 27H18.5006C19.9047 27 21.0589 26.579 21.9317 25.7484C22.8154 24.9076 23.2634 23.7664 23.2634 22.3564C23.2632 21.8123 23.2449 21.2757 23.2088 20.7616L23.2088 20.7616Z" fill="#CCCCCC"/>
</g>
<defs>
<clipPath id="clip0_108_5173">
<rect width="22.5261" height="27" fill="white" transform="translate(0.737305)"/>
</clipPath>
</defs>
</svg>
