<svg width="211" height="80" viewBox="0 0 211 80" fill="none" xmlns="http://www.w3.org/2000/svg">
<path d="M195.899 39.3958H76.4132C76.0429 32.0009 73.4887 24.876 69.0668 18.9038C64.645 12.9317 58.5499 8.37476 51.5368 5.79765C44.5236 3.22054 36.9006 2.73649 29.6122 4.40549C22.3238 6.07449 15.6904 9.82319 10.5337 15.1871C5.37698 20.551 1.9237 27.2945 0.601695 34.5819C-0.720315 41.8694 0.147042 49.3806 3.0963 56.1849C6.04556 62.9892 10.9471 68.7876 17.1937 72.8617C23.4402 76.9358 30.7572 79.1065 38.2382 79.1049C39.5568 79.1049 40.8755 79.0429 42.1942 78.9189H195.899C199.86 78.9097 203.655 77.3486 206.456 74.5768C209.257 71.8051 210.834 68.0485 210.843 64.1287V54.2484C210.847 50.3189 209.276 46.5484 206.474 43.764C203.673 40.9795 199.87 39.4086 195.899 39.3958Z" fill="url(#paint0_linear_504_11)"/>
<path d="M42.9477 29.2039L42.5077 29.0178C41.0481 28.3625 39.4639 28.0235 37.8612 28.0235C36.2585 28.0235 34.6743 28.3625 33.2147 29.0178L32.7747 29.2039L30.0117 18.9505L30.1997 18.7644C32.3946 17.0351 35.1172 16.0935 37.9227 16.0935C40.7282 16.0935 43.4508 17.0351 45.6457 18.7644L45.8337 18.9505L42.9477 29.2039ZM37.8617 27.2779C39.431 27.2838 40.9855 27.5788 42.4457 28.1479L44.8317 19.1989C42.821 17.7065 40.3755 16.8997 37.8622 16.8997C35.3489 16.8997 32.9034 17.7065 30.8927 19.1989L33.2787 28.1479C34.7367 27.5711 36.2926 27.2751 37.8627 27.276L37.8617 27.2779Z" fill="#0C0A0E"/>
<path d="M24.4237 39.3959L14.0637 36.6613L14.0007 36.4753C13.4794 33.7306 14.0171 30.8922 15.5077 28.521C16.838 26.0755 19.0267 24.1966 21.6607 23.2389L21.8487 23.1765L29.4487 30.6983L29.0717 30.9467C27.7644 31.8907 26.6738 33.0979 25.8717 34.4889C25.0732 35.8613 24.5808 37.387 24.4277 38.9634L24.4237 39.3959ZM14.6937 36.0428L23.7357 38.4666C23.9849 36.9409 24.4945 35.4683 25.2427 34.1118C26.0296 32.7646 27.0748 31.5825 28.3197 30.632L21.7267 24.1068C19.3689 25.0344 17.4139 26.7504 16.2017 28.9564C14.8764 31.071 14.3427 33.5788 14.6937 36.0428Z" fill="#0C0A0E"/>
<path d="M22.0396 59.4059L21.8516 59.3436C19.2176 58.3858 17.0289 56.5069 15.6986 54.0615C14.2056 51.6911 13.6677 48.8518 14.1916 46.1071L14.2546 45.9211L24.6116 43.1865L24.6746 43.622C24.8687 45.1984 25.3812 46.7201 26.1816 48.0965C27.0274 49.4558 28.111 50.6552 29.3816 51.6386L29.7586 51.8871L22.0396 59.4059ZM14.8186 46.605C14.5314 49.0867 15.0605 51.5939 16.3273 53.7545C17.5941 55.915 19.531 57.6137 21.8506 58.5983L28.4436 52.0731C27.2151 51.1055 26.1728 49.9267 25.3666 48.5933C24.5896 47.2495 24.0782 45.7716 23.8596 44.2386L14.8186 46.605Z" fill="#0C0A0E"/>
<path d="M37.8622 66.2408C35.0399 66.3429 32.2824 65.3888 30.1392 63.5686L29.9512 63.3826L32.7142 53.1292L33.1542 53.3152C34.6137 53.9705 36.1979 54.3096 37.8007 54.3096C39.4034 54.3096 40.9876 53.9705 42.4472 53.3152L42.8872 53.1292L45.6502 63.3826L45.4622 63.5686C45.3972 63.6933 42.7602 66.2408 37.8622 66.2408ZM30.8302 63.1955C32.8408 64.6879 35.2864 65.4947 37.7997 65.4947C40.313 65.4947 42.7585 64.6879 44.7692 63.1955L42.3832 54.2465C39.4399 55.4064 36.1595 55.4064 33.2162 54.2465L30.8302 63.1955Z" fill="#0C0A0E"/>
<path d="M53.8773 59.4057L46.2773 51.8839L46.6543 51.6355C47.9617 50.6915 49.0522 49.4843 49.8543 48.0933C50.6529 46.7209 51.1453 45.1952 51.2983 43.6188L51.3613 43.1833L61.7213 45.9179L61.7843 46.104C62.3065 48.8496 61.7687 51.6892 60.2773 54.0613C58.947 56.5066 56.7583 58.3855 54.1243 59.3433L53.8773 59.4057ZM47.5353 52.0729L54.1283 58.5981C56.4479 57.6135 58.3849 55.9148 59.6517 53.7543C60.9184 51.5937 61.4475 49.0865 61.1603 46.6048L52.1183 44.181C51.8692 45.7066 51.3596 47.1792 50.6113 48.5357C49.783 49.8701 48.7438 51.0643 47.5333 52.0729H47.5353Z" fill="#0C0A0E"/>
<path d="M51.2988 39.3962L51.2359 38.9607C51.047 37.3918 50.5568 35.873 49.7919 34.4862C48.9461 33.1269 47.8625 31.9274 46.5919 30.944L46.2148 30.6956L53.8148 23.1738L54.0029 23.2362C56.6368 24.194 58.8255 26.0729 60.1558 28.5183C61.6489 30.8886 62.1868 33.7279 61.6629 36.4726L61.5998 36.6586L51.2988 39.3962ZM47.4059 30.5719C48.6343 31.5396 49.6766 32.7183 50.4828 34.0517C51.2598 35.3955 51.7713 36.8734 51.9899 38.4065L61.0318 35.9827C61.3804 33.4996 60.8478 30.9737 59.5249 28.836C58.3287 26.6173 56.3684 24.8967 53.9998 23.9864L47.4059 30.5719Z" fill="#0C0A0E"/>
<path d="M37.924 73.6983C31.4292 73.6983 25.0803 71.7922 19.6801 68.221C14.28 64.6498 10.071 59.574 7.58559 53.6354C5.10016 47.6968 4.44986 41.1621 5.71693 34.8577C6.98399 28.5533 10.1115 22.7623 14.704 18.2171C19.2965 13.6719 25.1476 10.5765 31.5176 9.32249C37.8875 8.06847 44.4902 8.71208 50.4905 11.1719C56.4909 13.6318 61.6195 17.7974 65.2278 23.142C68.836 28.4867 70.762 34.7702 70.762 41.1981C70.7437 49.8122 67.2782 58.0682 61.1238 64.1593C54.9694 70.2503 46.6275 73.6802 37.924 73.6983ZM37.924 10.0025C31.6899 10.0025 25.5958 11.832 20.4124 15.2599C15.2289 18.6877 11.1889 23.5598 8.80327 29.2601C6.41759 34.9603 5.79339 41.2327 7.0096 47.2841C8.2258 53.3355 11.2278 58.894 15.6359 63.2568C20.0441 67.6196 25.6604 70.5907 31.7747 71.7944C37.889 72.9981 44.2266 72.3803 49.9861 70.0192C55.7457 67.6581 60.6684 63.6596 64.1319 58.5295C67.5953 53.3994 69.444 47.3681 69.444 41.1981C69.4387 32.9261 66.1161 24.9944 60.2061 19.1452C54.2961 13.2961 46.282 10.0077 37.924 10.0025Z" fill="#0C0A0E"/>
<path d="M37.9239 46.3546C40.8018 46.3546 43.1349 44.0455 43.1349 41.1972C43.1349 38.3488 40.8018 36.0398 37.9239 36.0398C35.0459 36.0398 32.7129 38.3488 32.7129 41.1972C32.7129 44.0455 35.0459 46.3546 37.9239 46.3546Z" fill="#0C0A0E"/>
<path d="M86.9617 72.5186H79.5527V75.8747H86.9617V72.5186Z" fill="black"/>
<path d="M98.0125 72.5186H90.6035V75.8747H98.0125V72.5186Z" fill="black"/>
<path d="M109.126 72.5186H101.717V75.8747H109.126V72.5186Z" fill="black"/>
<path d="M120.239 72.5186H112.83V75.8747H120.239V72.5186Z" fill="black"/>
<path d="M131.29 72.5186H123.881V75.8747H131.29V72.5186Z" fill="black"/>
<path d="M142.403 72.5186H134.994V75.8747H142.403V72.5186Z" fill="black"/>
<path d="M153.518 72.5186H146.109V75.8747H153.518V72.5186Z" fill="black"/>
<path d="M164.569 72.5186H157.16V75.8747H164.569V72.5186Z" fill="black"/>
<path d="M175.682 72.5186H168.273V75.8747H175.682V72.5186Z" fill="black"/>
<path d="M186.796 72.5186H179.387V75.8747H186.796V72.5186Z" fill="black"/>
<path d="M197.846 72.5186H190.438V75.8747H197.846V72.5186Z" fill="black"/>
<path d="M86.9617 43.0005H79.5527V46.3566H86.9617V43.0005Z" fill="black"/>
<path d="M98.0125 43.0005H90.6035V46.3566H98.0125V43.0005Z" fill="black"/>
<path d="M109.126 43.0005H101.717V46.3566H109.126V43.0005Z" fill="black"/>
<path d="M120.239 43.0005H112.83V46.3566H120.239V43.0005Z" fill="black"/>
<path d="M131.29 43.0005H123.881V46.3566H131.29V43.0005Z" fill="black"/>
<path d="M142.403 43.0005H134.994V46.3566H142.403V43.0005Z" fill="black"/>
<path d="M153.518 43.0005H146.109V46.3566H153.518V43.0005Z" fill="black"/>
<path d="M164.569 43.0005H157.16V46.3566H164.569V43.0005Z" fill="black"/>
<path d="M175.682 43.0005H168.273V46.3566H175.682V43.0005Z" fill="black"/>
<path d="M186.796 43.0005H179.387V46.3566H186.796V43.0005Z" fill="black"/>
<path d="M197.846 43.0005H190.438V46.3566H197.846V43.0005Z" fill="black"/>
<path d="M94.7393 69.1492H92.4688L90.6133 64.2419H83.1914L81.4458 69.1492H79.1631L85.877 51.6443H88.001L94.7393 69.1492ZM89.9419 62.3987L87.1953 54.9402C87.1058 54.696 87.0163 54.3054 86.9268 53.7683H86.8779C86.7965 54.2647 86.703 54.6554 86.5972 54.9402L83.875 62.3987H89.9419ZM105.579 68.5754C104.619 69.1532 103.479 69.4421 102.161 69.4421C100.379 69.4421 98.9385 68.8643 97.8398 67.7087C96.7493 66.545 96.2041 65.0395 96.2041 63.1921C96.2041 61.1332 96.7941 59.4812 97.9741 58.2361C99.1541 56.9828 100.729 56.3562 102.698 56.3562C103.797 56.3562 104.765 56.5597 105.604 56.9666V59.0173C104.676 58.3663 103.683 58.0408 102.625 58.0408C101.347 58.0408 100.298 58.5006 99.4756 59.4202C98.6618 60.3316 98.2549 61.532 98.2549 63.0212C98.2549 64.4861 98.6374 65.6417 99.4023 66.488C100.175 67.3344 101.209 67.7576 102.503 67.7576C103.593 67.7576 104.619 67.3954 105.579 66.6711V68.5754ZM117.127 68.5754C116.167 69.1532 115.027 69.4421 113.709 69.4421C111.927 69.4421 110.486 68.8643 109.388 67.7087C108.297 66.545 107.752 65.0395 107.752 63.1921C107.752 61.1332 108.342 59.4812 109.522 58.2361C110.702 56.9828 112.277 56.3562 114.246 56.3562C115.345 56.3562 116.313 56.5597 117.151 56.9666V59.0173C116.224 58.3663 115.231 58.0408 114.173 58.0408C112.895 58.0408 111.845 58.5006 111.023 59.4202C110.21 60.3316 109.803 61.532 109.803 63.0212C109.803 64.4861 110.185 65.6417 110.95 66.488C111.723 67.3344 112.757 67.7576 114.051 67.7576C115.141 67.7576 116.167 67.3954 117.127 66.6711V68.5754ZM130.201 63.3997H121.375C121.408 64.7913 121.782 65.8655 122.498 66.6223C123.214 67.3792 124.199 67.7576 125.452 67.7576C126.86 67.7576 128.154 67.2937 129.334 66.366V68.2458C128.235 69.0434 126.783 69.4421 124.976 69.4421C123.21 69.4421 121.823 68.8765 120.813 67.7454C119.804 66.606 119.3 65.0069 119.3 62.948C119.3 61.003 119.849 59.4202 120.948 58.1995C122.055 56.9706 123.426 56.3562 125.062 56.3562C126.697 56.3562 127.963 56.8852 128.858 57.9431C129.753 59.0011 130.201 60.47 130.201 62.3499V63.3997ZM128.15 61.7029C128.142 60.5473 127.861 59.648 127.308 59.0051C126.762 58.3622 126.001 58.0408 125.025 58.0408C124.081 58.0408 123.279 58.3785 122.62 59.054C121.961 59.7294 121.554 60.6124 121.399 61.7029H128.15ZM135.242 69.1492H133.24V50.6433H135.242V69.1492ZM149.341 63.3997H140.516C140.548 64.7913 140.923 65.8655 141.639 66.6223C142.355 67.3792 143.34 67.7576 144.593 67.7576C146.001 67.7576 147.295 67.2937 148.475 66.366V68.2458C147.376 69.0434 145.923 69.4421 144.117 69.4421C142.351 69.4421 140.963 68.8765 139.954 67.7454C138.945 66.606 138.44 65.0069 138.44 62.948C138.44 61.003 138.99 59.4202 140.088 58.1995C141.195 56.9706 142.566 56.3562 144.202 56.3562C145.838 56.3562 147.103 56.8852 147.999 57.9431C148.894 59.0011 149.341 60.47 149.341 62.3499V63.3997ZM147.291 61.7029C147.282 60.5473 147.002 59.648 146.448 59.0051C145.903 58.3622 145.142 58.0408 144.166 58.0408C143.222 58.0408 142.42 58.3785 141.761 59.054C141.102 59.7294 140.695 60.6124 140.54 61.7029H147.291ZM158.899 58.6755C158.549 58.407 158.045 58.2727 157.386 58.2727C156.531 58.2727 155.815 58.6755 155.237 59.4812C154.668 60.2869 154.383 61.3855 154.383 62.7771V69.1492H152.381V56.6492H154.383V59.2249H154.432C154.716 58.3459 155.152 57.6624 155.738 57.1741C156.324 56.6777 156.979 56.4294 157.703 56.4294C158.224 56.4294 158.623 56.4864 158.899 56.6003V58.6755ZM170.02 69.1492H168.018V67.196H167.969C167.098 68.6934 165.817 69.4421 164.124 69.4421C162.879 69.4421 161.902 69.1125 161.194 68.4534C160.494 67.7942 160.145 66.9194 160.145 65.8289C160.145 63.4932 161.52 62.1342 164.271 61.7517L168.018 61.2268C168.018 59.1028 167.16 58.0408 165.442 58.0408C163.937 58.0408 162.578 58.5535 161.365 59.5789V57.5281C162.594 56.7468 164.01 56.3562 165.613 56.3562C168.551 56.3562 170.02 57.9106 170.02 61.0193V69.1492ZM168.018 62.8259L165.003 63.241C164.075 63.3712 163.375 63.6031 162.903 63.9368C162.431 64.2623 162.195 64.8442 162.195 65.6824C162.195 66.2927 162.411 66.7932 162.842 67.1838C163.282 67.5663 163.864 67.7576 164.588 67.7576C165.581 67.7576 166.399 67.4117 167.042 66.72C167.693 66.0201 168.018 65.1371 168.018 64.071V62.8259ZM179.59 69.0271C179.118 69.2875 178.496 69.4177 177.723 69.4177C175.534 69.4177 174.439 68.197 174.439 65.7556V58.3582H172.291V56.6492H174.439V53.5974L176.441 52.9504V56.6492H179.59V58.3582H176.441V65.4016C176.441 66.2398 176.583 66.838 176.868 67.196C177.153 67.5541 177.625 67.7332 178.284 67.7332C178.789 67.7332 179.224 67.5948 179.59 67.3181V69.0271ZM187.488 69.4421C185.641 69.4421 184.164 68.8603 183.057 67.6965C181.958 66.5247 181.409 64.9744 181.409 63.0457C181.409 60.946 181.983 59.3062 183.13 58.1262C184.278 56.9462 185.828 56.3562 187.781 56.3562C189.645 56.3562 191.097 56.9299 192.139 58.0774C193.189 59.2249 193.714 60.8158 193.714 62.8503C193.714 64.8442 193.148 66.4433 192.017 67.6477C190.894 68.844 189.384 69.4421 187.488 69.4421ZM187.635 58.0408C186.349 58.0408 185.332 58.4802 184.583 59.3591C183.834 60.2299 183.46 61.4343 183.46 62.9724C183.46 64.4535 183.838 65.6213 184.595 66.4758C185.352 67.3303 186.365 67.7576 187.635 67.7576C188.929 67.7576 189.922 67.3385 190.613 66.5002C191.313 65.662 191.663 64.4698 191.663 62.9236C191.663 61.3611 191.313 60.1567 190.613 59.3103C189.922 58.4639 188.929 58.0408 187.635 58.0408ZM203.431 58.6755C203.081 58.407 202.576 58.2727 201.917 58.2727C201.062 58.2727 200.346 58.6755 199.769 59.4812C199.199 60.2869 198.914 61.3855 198.914 62.7771V69.1492H196.912V56.6492H198.914V59.2249H198.963C199.248 58.3459 199.683 57.6624 200.269 57.1741C200.855 56.6777 201.51 56.4294 202.234 56.4294C202.755 56.4294 203.154 56.4864 203.431 56.6003V58.6755Z" fill="white"/>
<path d="M111.16 13.9578L104.239 38.4646H100.872L95.8306 20.5544C95.6141 19.7911 95.4831 18.9594 95.4375 18.0593H95.3691C95.3008 18.9024 95.1527 19.7227 94.9248 20.5203L89.8491 38.4646H86.5166L79.3389 13.9578H82.5005L87.7129 32.7566C87.9294 33.5427 88.0661 34.363 88.123 35.2175H88.2085C88.2655 34.6137 88.4421 33.7934 88.7383 32.7566L94.1558 13.9578H96.9072L102.103 32.8933C102.285 33.5427 102.422 34.3061 102.513 35.1833H102.581C102.627 34.5909 102.78 33.8048 103.042 32.825L108.05 13.9578H111.16ZM120.389 38.8748C117.802 38.8748 115.735 38.0601 114.185 36.4309C112.647 34.7903 111.878 32.6199 111.878 29.9197C111.878 26.9802 112.681 24.6845 114.288 23.0325C115.894 21.3805 118.064 20.5544 120.799 20.5544C123.408 20.5544 125.442 21.3577 126.9 22.9641C128.37 24.5706 129.104 26.7979 129.104 29.6462C129.104 32.4376 128.313 34.6764 126.729 36.3625C125.157 38.0374 123.043 38.8748 120.389 38.8748ZM120.594 22.9128C118.794 22.9128 117.369 23.5281 116.321 24.7585C115.273 25.9776 114.749 27.6638 114.749 29.8171C114.749 31.8907 115.279 33.5256 116.338 34.7219C117.398 35.9182 118.816 36.5164 120.594 36.5164C122.405 36.5164 123.795 35.9296 124.764 34.7561C125.743 33.5826 126.233 31.9135 126.233 29.7488C126.233 27.5613 125.743 25.8751 124.764 24.6902C123.795 23.5053 122.405 22.9128 120.594 22.9128Z" fill="white"/>
<defs>
<linearGradient id="paint0_linear_504_11" x1="0" y1="41.1926" x2="210.843" y2="41.1926" gradientUnits="userSpaceOnUse">
<stop offset="0.005"/>
<stop offset="0.029" stop-color="#0C0C0C"/>
<stop offset="0.073" stop-color="#2D2D2D"/>
<stop offset="0.131" stop-color="#616262"/>
<stop offset="0.201" stop-color="#A9AAAA"/>
<stop offset="0.256" stop-color="#E6E7E8"/>
<stop offset="0.277" stop-color="#BBC6DC"/>
<stop offset="0.302" stop-color="#91A9D1"/>
<stop offset="0.327" stop-color="#6F93C8"/>
<stop offset="0.351" stop-color="#5385C2"/>
<stop offset="0.374" stop-color="#3A7CBE"/>
<stop offset="0.396" stop-color="#2577BC"/>
<stop offset="0.414" stop-color="#1C75BC"/>
<stop offset="0.437" stop-color="#197BA6"/>
<stop offset="0.466" stop-color="#12828E"/>
<stop offset="0.495" stop-color="#09887A"/>
<stop offset="0.525" stop-color="#018C67"/>
<stop offset="0.553" stop-color="#009056"/>
<stop offset="0.582" stop-color="#00924B"/>
<stop offset="0.609" stop-color="#009346"/>
<stop offset="0.636" stop-color="#009444"/>
<stop offset="0.648" stop-color="#4D8E40"/>
<stop offset="0.67" stop-color="#827F38"/>
<stop offset="0.694" stop-color="#A47031"/>
<stop offset="0.717" stop-color="#BE5E2C"/>
<stop offset="0.74" stop-color="#D14A28"/>
<stop offset="0.763" stop-color="#DF3626"/>
<stop offset="0.785" stop-color="#E92425"/>
<stop offset="0.808" stop-color="#ED1C24"/>
<stop offset="1" stop-color="#F9ED32"/>
</linearGradient>
</defs>
</svg>
