<svg width="28" height="28" viewBox="0 0 28 28" fill="none" xmlns="http://www.w3.org/2000/svg">
<path d="M27.131 10.073L25.781 8.723C25.4775 8.42018 25.0662 8.25011 24.6375 8.25011C24.2088 8.25011 23.7975 8.42018 23.494 8.723L20.65 11.567V2.426C20.6492 1.78266 20.3932 1.1659 19.9382 0.711083C19.4832 0.256263 18.8663 0.00052923 18.223 0L2.426 0C1.78283 0.000793876 1.16623 0.256645 0.711436 0.711436C0.256644 1.16623 0.000793876 1.78283 0 2.426V25.178C0.00185104 25.8205 0.258168 26.4361 0.712845 26.89C1.16752 27.3439 1.78352 27.5992 2.426 27.6H18.226C18.8692 27.5992 19.4858 27.3434 19.9406 26.8886C20.3954 26.4338 20.6512 25.8172 20.652 25.174V18.761L27.133 12.361C27.4359 12.0572 27.6058 11.6456 27.6054 11.2166C27.605 10.7876 27.4344 10.3763 27.131 10.073ZM17.459 19.639L15.026 20.774L16.16 18.344L22.193 12.306L23.528 13.641L17.459 19.639ZM19.033 25.179C19.0327 25.3935 18.9474 25.5991 18.7958 25.7508C18.6441 25.9024 18.4385 25.9877 18.224 25.988H2.426C2.21152 25.9877 2.0059 25.9024 1.85424 25.7508C1.70258 25.5991 1.61726 25.3935 1.617 25.179V2.426C1.61726 2.21152 1.70258 2.0059 1.85424 1.85424C2.0059 1.70258 2.21152 1.61726 2.426 1.617H18.226C18.4405 1.61726 18.6461 1.70258 18.7978 1.85424C18.9494 2.0059 19.0347 2.21152 19.035 2.426V13.184C14.55 17.669 14.843 17.346 14.757 17.53L12.622 22.105C12.5527 22.255 12.531 22.4227 12.5598 22.5855C12.5886 22.7482 12.6666 22.8982 12.7833 23.0153C12.8999 23.1324 13.0497 23.211 13.2123 23.2404C13.3749 23.2699 13.5427 23.2488 13.693 23.18L18.268 21.045C18.436 20.967 18.468 20.918 19.031 20.358L19.033 25.179ZM24.683 12.5L23.341 11.158L24.641 9.858L25.991 11.209L24.683 12.5Z" fill="#207BF3"/>
<path d="M4.31297 6.847H16.39C16.5995 6.83963 16.7979 6.75122 16.9436 6.60041C17.0892 6.44959 17.1705 6.24814 17.1705 6.0385C17.1705 5.82887 17.0892 5.62741 16.9436 5.4766C16.7979 5.32578 16.5995 5.23737 16.39 5.23H4.31297C4.10347 5.23737 3.905 5.32578 3.75939 5.4766C3.61379 5.62741 3.53241 5.82887 3.53241 6.0385C3.53241 6.24814 3.61379 6.44959 3.75939 6.60041C3.905 6.75122 4.10347 6.83963 4.31297 6.847Z" fill="#207BF3"/>
<path d="M4.31297 11.16H13.797C14.0065 11.1526 14.2049 11.0642 14.3505 10.9134C14.4962 10.7626 14.5775 10.5611 14.5775 10.3515C14.5775 10.1419 14.4962 9.94041 14.3505 9.7896C14.2049 9.63878 14.0065 9.55037 13.797 9.543H4.31297C4.10347 9.55037 3.905 9.63878 3.75939 9.7896C3.61379 9.94041 3.53241 10.1419 3.53241 10.3515C3.53241 10.5611 3.61379 10.7626 3.75939 10.9134C3.905 11.0642 4.10347 11.1526 4.31297 11.16Z" fill="#207BF3"/>
<path d="M11.215 13.856H4.31499C4.10548 13.8634 3.90701 13.9518 3.76141 14.1026C3.6158 14.2534 3.53442 14.4549 3.53442 14.6645C3.53442 14.8741 3.6158 15.0756 3.76141 15.2264C3.90701 15.3772 4.10548 15.4656 4.31499 15.473H11.215C11.4245 15.4656 11.623 15.3772 11.7686 15.2264C11.9142 15.0756 11.9955 14.8741 11.9955 14.6645C11.9955 14.4549 11.9142 14.2534 11.7686 14.1026C11.623 13.9518 11.4245 13.8634 11.215 13.856Z" fill="#207BF3"/>
</svg>
